<svg
   width="16"
   height="16"
   viewBox="0 0 16 16"
   fill="none"
   xmlns="http://www.w3.org/2000/svg"
>
   <path
      fill-rule="evenodd"
      clip-rule="evenodd"
      d="M11.495 7.50507C11.7683 7.77844 11.7683 8.22166 11.495 8.49502L5.19497 14.795C4.92161 15.0684 4.47839 15.0684 4.20503 14.795C3.93166 14.5217 3.93166 14.0784 4.20503 13.8051L10.505 7.50507C10.7784 7.23171 11.2216 7.23171 11.495 7.50507Z"
      fill="#333333"
   />
   <path
      fill-rule="evenodd"
      clip-rule="evenodd"
      d="M4.20503 1.20503C4.47839 0.931658 4.92161 0.931658 5.19497 1.20503L11.495 7.50503C11.7683 7.77839 11.7683 8.22161 11.495 8.49498C11.2216 8.76834 10.7784 8.76834 10.505 8.49498L4.20503 2.19497C3.93166 1.92161 3.93166 1.47839 4.20503 1.20503Z"
      fill="#333333"
   />
</svg>