<svg
   width="20"
   height="20"
   viewBox="0 0 20 20"
   fill="none"
   xmlns="http://www.w3.org/2000/svg"
>
   <path
      d="M10.0002 5.09165L9.19351 4.2625C7.30007 2.31619 3.82822 2.98783 2.57493 5.43478C1.98654 6.58569 1.85378 8.24737 2.92819 10.3681C3.96322 12.41 6.11654 14.8558 10.0002 17.5199C13.8838 14.8558 16.036 12.41 17.0721 10.3681C18.1465 8.24624 18.0149 6.58569 17.4254 5.43478C16.1721 2.98783 12.7002 2.31506 10.8068 4.26137L10.0002 5.09165ZM10.0002 18.8756C-7.24999 7.47672 4.68887 -1.42005 9.80215 3.28597C9.86965 3.34785 9.93603 3.41197 10.0002 3.47835C10.0636 3.41203 10.1297 3.34823 10.1982 3.28709C15.3103 -1.4223 27.2503 7.4756 10.0002 18.8756Z"
      fill="#D84444"
   />
</svg>