<svg width="185" height="36" viewBox="0 0 185 36" fill="none" xmlns="http://www.w3.org/2000/svg">
<path d="M0.044 27V25.452L4.724 24.912H5.336V27H0.044ZM2.42 27C2.468 25.872 2.504 24.684 2.528 23.436C2.552 22.188 2.564 20.916 2.564 19.62C2.588 18.3 2.6 17.016 2.6 15.768V14.58C2.6 13.332 2.588 12.072 2.564 10.8C2.564 9.528 2.552 8.268 2.528 7.02C2.528 5.748 2.504 4.548 2.456 3.42H8.828C8.78 4.548 8.744 5.736 8.72 6.984C8.696 8.208 8.684 9.468 8.684 10.764C8.684 12.06 8.684 13.332 8.684 14.58V15.696C8.684 16.968 8.684 18.264 8.684 19.584C8.684 20.88 8.696 22.164 8.72 23.436C8.744 24.684 8.78 25.872 8.828 27H2.42ZM5.588 27V25.308H9.548C11.108 25.308 12.32 24.888 13.184 24.048C14.048 23.208 14.48 22.008 14.48 20.448C14.48 18.744 14.072 17.496 13.256 16.704C12.464 15.888 11.228 15.48 9.548 15.48H5.588V13.932H9.368C10.28 13.932 11.048 13.752 11.672 13.392C12.296 13.032 12.764 12.516 13.076 11.844C13.388 11.148 13.544 10.296 13.544 9.288C13.544 8.352 13.388 7.584 13.076 6.984C12.788 6.36 12.356 5.892 11.78 5.58C11.204 5.268 10.484 5.112 9.62 5.112H5.588V3.42H10.772C12.956 3.42 14.672 3.672 15.92 4.176C17.168 4.656 18.056 5.316 18.584 6.156C19.136 6.972 19.412 7.896 19.412 8.928C19.412 9.888 19.148 10.764 18.62 11.556C18.116 12.348 17.264 13.008 16.064 13.536C14.888 14.064 13.292 14.436 11.276 14.652V14.364C13.388 14.46 15.14 14.76 16.532 15.264C17.948 15.744 19.004 16.416 19.7 17.28C20.396 18.144 20.744 19.176 20.744 20.376C20.744 21.312 20.528 22.188 20.096 23.004C19.664 23.796 19.004 24.492 18.116 25.092C17.228 25.692 16.088 26.16 14.696 26.496C13.304 26.832 11.636 27 9.692 27H5.588ZM0.044 4.968V3.42H5.336V5.508H4.724L0.044 4.968ZM25.9632 27.576C24.6192 27.576 23.5272 27.192 22.6872 26.424C21.8472 25.632 21.4272 24.528 21.4272 23.112C21.4272 22.224 21.6312 21.432 22.0392 20.736C22.4712 20.016 23.1912 19.356 24.1992 18.756C25.2072 18.156 26.5992 17.604 28.3752 17.1C28.9272 16.956 29.5152 16.8 30.1392 16.632C30.7872 16.464 31.4232 16.296 32.0472 16.128C32.6952 15.96 33.3312 15.792 33.9552 15.624V16.848C33.1392 17.088 32.3592 17.328 31.6152 17.568C30.8712 17.784 30.2472 17.988 29.7432 18.18C29.1672 18.396 28.6512 18.684 28.1952 19.044C27.7632 19.404 27.4272 19.848 27.1872 20.376C26.9712 20.88 26.8632 21.468 26.8632 22.14C26.8632 23.028 27.0672 23.676 27.4752 24.084C27.8832 24.492 28.3752 24.696 28.9512 24.696C29.3112 24.696 29.6472 24.648 29.9592 24.552C30.2712 24.432 30.6072 24.252 30.9672 24.012C31.3512 23.772 31.7952 23.436 32.2992 23.004L32.6232 24.696H31.2552C30.7272 25.344 30.2112 25.884 29.7072 26.316C29.2032 26.724 28.6632 27.036 28.0872 27.252C27.5112 27.468 26.8032 27.576 25.9632 27.576ZM34.8912 27.54C33.6432 27.54 32.6832 27.264 32.0112 26.712C31.3632 26.136 30.9552 25.368 30.7872 24.408V24.264V15.192C30.7872 14.088 30.7152 13.236 30.5712 12.636C30.4272 12.012 30.1512 11.568 29.7432 11.304C29.3592 11.04 28.8072 10.908 28.0872 10.908C27.6792 10.908 27.2592 10.944 26.8272 11.016C26.3952 11.088 25.8792 11.22 25.2792 11.412L27.3312 10.116L27.1872 12.564C27.1632 13.86 26.8752 14.772 26.3232 15.3C25.7712 15.828 25.1472 16.092 24.4512 16.092C23.8272 16.092 23.3112 15.948 22.9032 15.66C22.4952 15.348 22.2072 14.88 22.0392 14.256C22.1112 12.816 22.8432 11.64 24.2352 10.728C25.6272 9.816 27.5952 9.36 30.1392 9.36C31.6752 9.36 32.9112 9.6 33.8472 10.08C34.8072 10.536 35.5032 11.256 35.9352 12.24C36.3672 13.224 36.5832 14.508 36.5832 16.092V24.192C36.5832 24.456 36.6432 24.672 36.7632 24.84C36.8832 24.984 37.0512 25.056 37.2672 25.056C37.4832 25.056 37.6632 25.008 37.8072 24.912C37.9752 24.792 38.1672 24.576 38.3832 24.264L39.2112 24.804C38.8272 25.74 38.2872 26.436 37.5912 26.892C36.8952 27.324 35.9952 27.54 34.8912 27.54ZM38.98 27.036V25.632L40.744 25.272C40.768 24.672 40.78 24.048 40.78 23.4C40.804 22.728 40.816 22.056 40.816 21.384C40.816 20.712 40.816 20.112 40.816 19.584V4.176L38.764 3.78V2.556L46.18 0.899999L46.756 1.296L46.612 7.272V12.204L46.72 12.492V24.228V24.336L46.108 27.504L38.98 27.036ZM51.076 27.576C50.284 27.576 49.552 27.432 48.88 27.144C48.208 26.88 47.608 26.472 47.08 25.92C46.552 25.368 46.072 24.672 45.64 23.832H44.884L45.208 21.96C45.832 22.776 46.396 23.412 46.9 23.868C47.428 24.324 48.076 24.552 48.844 24.552C49.468 24.552 50.02 24.336 50.5 23.904C51.004 23.448 51.4 22.764 51.688 21.852C51.976 20.94 52.12 19.764 52.12 18.324C52.12 16.188 51.808 14.676 51.184 13.788C50.584 12.876 49.804 12.42 48.844 12.42C48.292 12.42 47.776 12.576 47.296 12.888C46.84 13.2 46.42 13.572 46.036 14.004C45.676 14.412 45.34 14.784 45.028 15.12L44.74 12.816H45.928C46.408 12.048 46.936 11.412 47.512 10.908C48.088 10.404 48.724 10.02 49.42 9.756C50.116 9.492 50.86 9.36 51.652 9.36C52.948 9.36 54.1 9.696 55.108 10.368C56.116 11.016 56.908 12 57.484 13.32C58.06 14.616 58.348 16.236 58.348 18.18C58.348 20.1 58.024 21.768 57.376 23.184C56.728 24.576 55.852 25.656 54.748 26.424C53.644 27.192 52.42 27.576 51.076 27.576ZM61.5179 35.568C60.9659 35.568 60.4139 35.46 59.8619 35.244C59.3339 35.052 58.8899 34.764 58.5299 34.38C58.1699 33.996 57.9419 33.54 57.8459 33.012C57.9659 32.244 58.2779 31.668 58.7819 31.284C59.3099 30.9 59.9219 30.708 60.6179 30.708C61.1219 30.708 61.6499 30.816 62.2019 31.032C62.7539 31.272 63.2939 31.776 63.8219 32.544L64.7579 33.912L63.7499 34.488L62.8139 33.984C63.3179 33.672 63.7739 33.288 64.1819 32.832C64.6139 32.376 65.0099 31.824 65.3699 31.176C65.7539 30.552 66.1019 29.82 66.4139 28.98L67.5659 25.704L67.6739 25.344L70.8779 16.272L73.1099 9.9H75.0539L67.7459 29.304C67.2419 30.624 66.7019 31.752 66.1259 32.688C65.5739 33.624 64.9259 34.332 64.1819 34.812C63.4619 35.316 62.5739 35.568 61.5179 35.568ZM66.8459 29.268L58.7819 9.9H65.0819L69.4739 22.104L69.0779 23.94L66.8459 29.268ZM57.8819 11.232V9.9H68.0699V11.196L65.0819 11.772H60.8339L57.8819 11.232ZM70.2299 11.232V9.9H76.4219V11.232L73.6139 11.7H73.0739L70.2299 11.232ZM82.6719 27V25.452L86.0559 24.984H87.0639L91.0239 25.452V27H82.6719ZM85.5159 27V4.284H87.4239V15.228V27H85.5159ZM97.1799 4.968V3.42H105.532V4.968L102.364 5.436H101.392L97.1799 4.968ZM99.8079 27.036L87.0999 8.172H86.9919L85.0479 5.22L82.8519 5.004V3.42H91.0959L101.608 18.972L100.888 19.08V14.112V3.42H102.796V27.036H99.8079ZM109.755 27.576C108.411 27.576 107.319 27.192 106.479 26.424C105.639 25.632 105.219 24.528 105.219 23.112C105.219 22.224 105.423 21.432 105.831 20.736C106.263 20.016 106.983 19.356 107.991 18.756C108.999 18.156 110.391 17.604 112.167 17.1C112.719 16.956 113.307 16.8 113.931 16.632C114.579 16.464 115.215 16.296 115.839 16.128C116.487 15.96 117.123 15.792 117.747 15.624V16.848C116.931 17.088 116.151 17.328 115.407 17.568C114.663 17.784 114.039 17.988 113.535 18.18C112.959 18.396 112.443 18.684 111.987 19.044C111.555 19.404 111.219 19.848 110.979 20.376C110.763 20.88 110.655 21.468 110.655 22.14C110.655 23.028 110.859 23.676 111.267 24.084C111.675 24.492 112.167 24.696 112.743 24.696C113.103 24.696 113.439 24.648 113.751 24.552C114.063 24.432 114.399 24.252 114.759 24.012C115.143 23.772 115.587 23.436 116.091 23.004L116.415 24.696H115.047C114.519 25.344 114.003 25.884 113.499 26.316C112.995 26.724 112.455 27.036 111.879 27.252C111.303 27.468 110.595 27.576 109.755 27.576ZM118.683 27.54C117.435 27.54 116.475 27.264 115.803 26.712C115.155 26.136 114.747 25.368 114.579 24.408V24.264V15.192C114.579 14.088 114.507 13.236 114.363 12.636C114.219 12.012 113.943 11.568 113.535 11.304C113.151 11.04 112.599 10.908 111.879 10.908C111.471 10.908 111.051 10.944 110.619 11.016C110.187 11.088 109.671 11.22 109.071 11.412L111.123 10.116L110.979 12.564C110.955 13.86 110.667 14.772 110.115 15.3C109.563 15.828 108.939 16.092 108.243 16.092C107.619 16.092 107.103 15.948 106.695 15.66C106.287 15.348 105.999 14.88 105.831 14.256C105.903 12.816 106.635 11.64 108.027 10.728C109.419 9.816 111.387 9.36 113.931 9.36C115.467 9.36 116.703 9.6 117.639 10.08C118.599 10.536 119.295 11.256 119.727 12.24C120.159 13.224 120.375 14.508 120.375 16.092V24.192C120.375 24.456 120.435 24.672 120.555 24.84C120.675 24.984 120.843 25.056 121.059 25.056C121.275 25.056 121.455 25.008 121.599 24.912C121.767 24.792 121.959 24.576 122.175 24.264L123.003 24.804C122.619 25.74 122.079 26.436 121.383 26.892C120.687 27.324 119.787 27.54 118.683 27.54ZM122.628 27V25.632L125.76 24.948H128.856L131.988 25.632V27H122.628ZM124.356 27C124.38 26.424 124.404 25.692 124.428 24.804C124.452 23.916 124.464 23.004 124.464 22.068C124.488 21.108 124.5 20.244 124.5 19.476V17.784C124.5 17.064 124.488 16.464 124.464 15.984C124.464 15.48 124.452 15.012 124.428 14.58C124.428 14.148 124.416 13.68 124.392 13.176L122.376 12.744V11.592L129.576 9.36L130.188 9.756L130.368 13.428V13.536V19.476C130.368 20.244 130.368 21.108 130.368 22.068C130.392 23.004 130.404 23.916 130.404 24.804C130.428 25.692 130.464 26.424 130.512 27H124.356ZM133.248 27V25.632L136.2 24.948H139.332L142.428 25.632V27H133.248ZM134.868 27C134.892 26.424 134.916 25.704 134.94 24.84C134.964 23.952 134.976 23.028 134.976 22.068C135 21.108 135.012 20.244 135.012 19.476V15.768C135.012 14.64 134.868 13.86 134.58 13.428C134.292 12.972 133.788 12.744 133.068 12.744C132.612 12.744 132.132 12.864 131.628 13.104C131.148 13.32 130.68 13.62 130.224 14.004C129.768 14.364 129.384 14.772 129.072 15.228L129 13.464H129.504C130.152 12.504 130.8 11.724 131.448 11.124C132.096 10.524 132.78 10.08 133.5 9.792C134.22 9.504 134.988 9.36 135.804 9.36C137.412 9.36 138.648 9.84 139.512 10.8C140.376 11.76 140.808 13.224 140.808 15.192V19.476C140.808 20.244 140.808 21.108 140.808 22.068C140.832 23.028 140.844 23.952 140.844 24.84C140.868 25.704 140.904 26.424 140.952 27H134.868ZM143.76 27V25.632L146.568 24.948H149.772L152.904 25.632V27H143.76ZM145.272 27C145.296 26.424 145.32 25.704 145.344 24.84C145.368 23.952 145.38 23.028 145.38 22.068C145.404 21.108 145.416 20.244 145.416 19.476V15.768C145.416 14.568 145.26 13.764 144.948 13.356C144.66 12.948 144.18 12.744 143.508 12.744C143.052 12.744 142.584 12.852 142.104 13.068C141.624 13.26 141.156 13.548 140.7 13.932C140.268 14.292 139.848 14.736 139.44 15.264L139.332 13.464H139.872C140.592 12.432 141.276 11.616 141.924 11.016C142.596 10.416 143.28 9.996 143.976 9.756C144.672 9.492 145.404 9.36 146.172 9.36C147.852 9.36 149.112 9.864 149.952 10.872C150.792 11.856 151.212 13.356 151.212 15.372V19.476C151.212 20.244 151.212 21.108 151.212 22.068C151.236 23.028 151.248 23.952 151.248 24.84C151.272 25.704 151.308 26.424 151.356 27H145.272ZM162.328 27.576C160.648 27.576 159.136 27.24 157.792 26.568C156.472 25.872 155.428 24.864 154.66 23.544C153.892 22.224 153.508 20.604 153.508 18.684C153.508 16.668 153.892 14.976 154.66 13.608C155.452 12.216 156.508 11.16 157.828 10.44C159.148 9.72 160.6 9.36 162.184 9.36C163.768 9.36 165.112 9.684 166.216 10.332C167.344 10.956 168.196 11.82 168.772 12.924C169.348 14.004 169.636 15.24 169.636 16.632C169.636 16.992 169.624 17.304 169.6 17.568C169.576 17.808 169.528 18.096 169.456 18.432H155.956V16.848H161.824C162.784 16.848 163.432 16.68 163.768 16.344C164.104 15.984 164.272 15.336 164.272 14.4C164.272 13.536 164.176 12.852 163.984 12.348C163.816 11.82 163.576 11.448 163.264 11.232C162.952 10.992 162.604 10.872 162.22 10.872C161.74 10.872 161.308 11.088 160.924 11.52C160.564 11.928 160.264 12.636 160.024 13.644C159.808 14.652 159.7 16.044 159.7 17.82C159.7 19.26 159.916 20.46 160.348 21.42C160.804 22.356 161.416 23.064 162.184 23.544C162.952 24 163.78 24.228 164.668 24.228C165.508 24.228 166.24 24.084 166.864 23.796C167.512 23.484 168.088 23.052 168.592 22.5L169.6 23.328C169.12 24.288 168.52 25.08 167.8 25.704C167.104 26.328 166.3 26.796 165.388 27.108C164.5 27.42 163.48 27.576 162.328 27.576ZM176.653 27.576C175.501 27.576 174.433 27.432 173.449 27.144C172.465 26.856 171.505 26.448 170.569 25.92L170.713 21.42H172.873L174.169 26.28H172.441V24.66C173.185 25.068 173.857 25.392 174.457 25.632C175.057 25.848 175.777 25.956 176.617 25.956C177.241 25.956 177.781 25.884 178.237 25.74C178.693 25.572 179.041 25.32 179.281 24.984C179.521 24.648 179.641 24.24 179.641 23.76C179.641 23.088 179.389 22.548 178.885 22.14C178.405 21.732 177.637 21.36 176.581 21.024L174.997 20.52C174.181 20.232 173.449 19.86 172.801 19.404C172.153 18.948 171.637 18.372 171.253 17.676C170.893 16.98 170.713 16.152 170.713 15.192C170.713 14.064 170.989 13.068 171.541 12.204C172.093 11.316 172.909 10.62 173.989 10.116C175.069 9.612 176.389 9.36 177.949 9.36C178.981 9.36 179.917 9.48 180.757 9.72C181.621 9.936 182.485 10.272 183.349 10.728L183.133 14.868H180.973L179.569 10.368H181.297V12.06C180.721 11.652 180.193 11.364 179.713 11.196C179.257 11.028 178.645 10.944 177.877 10.944C177.109 10.944 176.473 11.124 175.969 11.484C175.489 11.82 175.249 12.336 175.249 13.032C175.249 13.632 175.489 14.136 175.969 14.544C176.449 14.928 177.229 15.3 178.309 15.66L179.857 16.128C180.817 16.44 181.621 16.836 182.269 17.316C182.941 17.772 183.457 18.348 183.817 19.044C184.177 19.74 184.357 20.58 184.357 21.564C184.357 22.86 184.045 23.952 183.421 24.84C182.797 25.728 181.909 26.412 180.757 26.892C179.605 27.348 178.237 27.576 176.653 27.576Z" fill="#CB3460"/>
</svg>
